HIERARCHY
ROOT Hips
{
	OFFSET 0.000000 0.000000 0.000000 
	CHANNELS 6 Xposition Yposition Zposition Zrotation Yrotation Xrotation
	JOINT LeftUpLeg
	{
		OFFSET 1.363060 -1.794630 0.839290 
		CHANNELS 3 Zrotation Yrotation Xrotation
		JOINT LeftLeg
		{
			OFFSET 2.448110 -6.726130 0.000000 
			CHANNELS 3 Zrotation Yrotation Xrotation
			JOINT LeftFoot
			{
				OFFSET 2.562200 -7.039590 0.000000 
				CHANNELS 3 Zrotation Yrotation Xrotation
				JOINT LeftToeBase
				{
					OFFSET 0.157640 -0.433110 2.322550 
					CHANNELS 3 Zrotation Yrotation Xrotation
					End Site
					{
						OFFSET 0.000000 0.000000 0.000000 
					}
				}
			}
		}
	}
	JOINT RightUpLeg
	{
		OFFSET -1.305520 -1.794630 0.839290 
		CHANNELS 3 Zrotation Yrotation Xrotation
		JOINT RightLeg
		{
			OFFSET -2.542530 -6.985550 0.000000 
			CHANNELS 3 Zrotation Yrotation Xrotation
			JOINT RightFoot
			{
				OFFSET -2.568260 -7.056230 0.000000 
				CHANNELS 3 Zrotation Yrotation Xrotation
				JOINT RightToeBase
				{
					OFFSET -0.164730 -0.452590 2.363150 
					CHANNELS 3 Zrotation Yrotation Xrotation
					End Site
					{
						OFFSET 0.000000 0.000000 0.000000 
					}
				}
			}
		}
	}
	JOINT Spine
	{
		OFFSET 0.028270 2.035590 -0.193380 
		CHANNELS 3 Zrotation Yrotation Xrotation
		JOINT Spine1
		{
			OFFSET 0.056720 2.048850 -0.042750 
			CHANNELS 3 Zrotation Yrotation Xrotation
			JOINT Neck1
			{
				OFFSET -0.054170 1.746240 0.172020 
				CHANNELS 3 Zrotation Yrotation Xrotation
				JOINT Head
				{
					OFFSET 0.104070 1.761360 -0.123970 
					CHANNELS 3 Zrotation Yrotation Xrotation
					End Site
					{
						OFFSET 0.000000 0.000000 0.000000 
					}
				}
			}
			JOINT LeftArm
			{
				OFFSET 3.362410 1.200890 -0.311210 
				CHANNELS 3 Zrotation Yrotation Xrotation
				JOINT LeftForeArm
				{
					OFFSET 4.983000 -0.000000 -0.000000 
					CHANNELS 3 Zrotation Yrotation Xrotation
					JOINT LeftHand
					{
						OFFSET 3.483560 -0.000000 -0.000000 
						CHANNELS 3 Zrotation Yrotation Xrotation
						JOINT LeftHandIndex1
						{
							OFFSET 0.715260 -0.000000 -0.000000 
							CHANNELS 3 Zrotation Yrotation Xrotation
							End Site
							{
								OFFSET 0.000000 0.000000 0.000000 
							}
						}
					}
				}
			}
			JOINT RightArm
			{
				OFFSET -3.136600 1.374050 -0.404650 
				CHANNELS 3 Zrotation Yrotation Xrotation
				JOINT RightForeArm
				{
					OFFSET -5.241900 -0.000000 -0.000000 
					CHANNELS 3 Zrotation Yrotation Xrotation
					JOINT RightHand
					{
						OFFSET -3.444170 -0.000000 -0.000000 
						CHANNELS 3 Zrotation Yrotation Xrotation
						JOINT RightHandIndex1
						{
							OFFSET -0.622530 -0.000000 -0.000000 
							CHANNELS 3 Zrotation Yrotation Xrotation
							End Site
							{
								OFFSET 0.000000 0.000000 0.000000 
							}
						}
					}
				}
			}
		}
	}
}
MOTION
Frames: 12
Frame Time: 0.041667
6.014102 17.541446 0.795544 -1.327163 -11.195242 13.083859 -30.606449 -9.031934 -15.617897 -4.295483 11.997143 25.154712 -0.042931 3.984992 1.851044 0.374700 -3.931700 -10.884500 29.795632 21.431920 -15.962334 3.048163 -14.967238 29.977879 1.399556 -8.138434 -3.670602 -0.468300 4.389300 -12.174500 1.257046 -0.333981 -4.458257 0.841461 0.220683 5.657922 6.616325 -11.852452 8.946319 1.140100 -5.728000 8.095100 -79.551976 3.879584 35.834132 12.798409 -16.148882 -2.689572 -1.196124 -1.936174 -40.587091 -7.125000 0.000000 0.000000 76.008817 -0.675382 26.282249 -13.756748 15.590508 -2.561363 1.376346 1.007371 -3.550750 7.125000 0.000000 0.000000 
6.014435 17.541446 0.797096 -1.326310 -11.215986 13.078991 -30.614894 -8.998466 -15.618290 -4.292782 11.997169 25.161974 -0.043843 3.986013 1.841607 0.384300 -3.980900 -11.022900 29.790778 21.410670 -15.964579 3.049005 -14.964236 29.975911 1.378896 -8.074946 -3.653425 -0.460500 4.353200 -12.072500 1.264049 -0.353345 -4.471236 0.853841 0.212867 5.615644 6.598525 -11.818552 9.053808 1.134500 -5.709900 8.158300 -79.610938 3.959136 35.653755 12.787624 -16.126932 -2.684448 -1.076300 -2.001730 -40.505130 -7.125000 0.000000 0.000000 75.991179 -0.735404 26.272742 -13.749488 15.580500 -2.559229 1.378713 1.003701 -3.542505 7.125000 0.000000 0.000000 
6.014324 17.541889 0.796653 -1.325581 -11.234063 13.086024 -30.609507 -8.985040 -15.634500 -4.293170 11.996889 25.158306 -0.045707 3.992823 1.853230 0.384400 -3.981500 -11.024600 29.787289 21.437133 -15.976232 3.050022 -14.967935 29.974215 1.385749 -8.097138 -3.662393 -0.466000 4.378700 -12.144700 1.277614 -0.382369 -4.480232 0.905549 0.200803 5.596869 6.601512 -11.771580 9.130898 1.147000 -5.687900 8.214500 -79.697749 3.960375 35.560497 12.758341 -16.079155 -2.669053 -1.087828 -2.000955 -40.620923 -7.125000 0.000000 0.000000 75.937364 -0.735315 26.269875 -13.743660 15.566388 -2.554470 1.374124 1.002950 -3.524852 7.125000 0.000000 0.000000 
6.013991 17.541224 0.796986 -1.319085 -11.224573 13.082334 -30.609997 -8.962198 -15.634815 -4.293359 11.993352 25.155723 -0.030611 3.947015 1.863607 0.377500 -3.946200 -10.925200 29.782629 21.440375 -15.974993 3.048561 -14.969265 29.978665 1.387890 -8.103071 -3.660461 -0.460700 4.353900 -12.074500 1.286574 -0.411858 -4.492200 0.937342 0.188840 5.553025 6.592425 -11.737539 9.204720 1.143000 -5.669900 8.266600 -79.741283 4.049281 35.466634 12.769795 -16.098570 -2.673770 -1.080055 -2.019642 -40.684665 -7.125000 0.000000 0.000000 75.910801 -0.778810 26.297093 -13.747869 15.567697 -2.556341 1.376987 1.000770 -3.562314 7.125000 0.000000 0.000000 
6.013769 17.541557 0.797762 -1.312993 -11.237111 13.075889 -30.620315 -8.956438 -15.629444 -4.293630 11.991942 25.153891 -0.034293 3.957257 1.854355 0.383700 -3.977900 -11.014600 29.777482 21.457746 -15.965469 3.047243 -14.970118 29.982295 1.387815 -8.102678 -3.660104 -0.459100 4.346400 -12.053300 1.282733 -0.405906 -4.495145 0.913262 0.190627 5.554760 6.562650 -11.726750 9.262837 1.119800 -5.661700 8.300200 -79.731432 4.072818 35.416553 12.756627 -16.081807 -2.667628 -1.082480 -2.016735 -40.726522 -7.125000 0.000000 0.000000 75.926612 -0.788209 26.260934 -13.745892 15.566894 -2.556011 1.377381 1.000890 -3.575982 7.125000 0.000000 0.000000 
6.013437 17.541557 0.798982 -1.301310 -11.242259 13.088975 -30.627787 -8.945217 -15.636716 -4.294036 11.992223 25.153779 -0.028818 3.940110 1.849258 0.368500 -3.899400 -10.793900 29.759270 21.479789 -15.975686 3.047501 -14.972856 29.981689 1.389610 -8.109499 -3.669727 -0.453100 4.318200 -11.973600 1.297979 -0.440076 -4.507443 0.976067 0.178270 5.526510 6.534262 -11.656581 9.316974 1.114300 -5.631600 8.337800 -79.812067 4.134753 35.374135 12.743393 -16.068038 -2.664741 -1.192815 -1.884274 -40.847889 -7.125000 0.000000 0.000000 75.853387 -0.820078 26.294129 -13.736673 15.549700 -2.550325 1.374511 0.994175 -3.541888 7.125000 0.000000 0.000000 
6.013326 17.540558 0.800091 -1.301099 -11.264174 13.065048 -30.642176 -8.934222 -15.608789 -4.291233 11.990082 25.159098 -0.044942 3.986151 1.831279 0.376400 -3.940400 -10.909200 29.768884 21.472284 -15.955932 3.045714 -14.970633 29.986944 1.384591 -8.092932 -3.669408 -0.462800 4.363900 -12.102800 1.293406 -0.431032 -4.508126 0.946021 0.181008 5.525957 6.526253 -11.632198 9.335911 1.099900 -5.615700 8.355400 -79.772325 4.131384 35.383644 12.730553 -16.048764 -2.655804 -1.110584 -2.000797 -40.914125 -7.125000 0.000000 0.000000 75.873015 -0.803786 26.242889 -13.726111 15.537900 -2.547413 1.375135 0.998636 -3.538086 7.125000 0.000000 0.000000 
6.012439 17.542111 0.800646 -1.300611 -11.267894 13.082864 -30.654268 -8.792045 -15.680683 -4.286917 11.993258 25.170107 -0.028626 3.937470 1.861028 0.415500 -4.137400 -11.463500 29.756928 21.455770 -15.983020 3.047079 -14.973122 29.985998 1.371219 -8.052978 -3.662454 -0.459600 4.348800 -12.060200 1.301558 -0.449093 -4.511789 0.972317 0.174358 5.535281 6.490382 -11.583236 9.334890 1.079600 -5.594700 8.353000 -79.794428 4.137088 35.369750 12.726608 -16.045697 -2.653775 -1.109668 -2.014611 -40.955803 -7.125000 0.000000 0.000000 75.839667 -0.794072 26.242252 -13.730939 15.540700 -2.548267 1.374255 0.998220 -3.534741 7.125000 0.000000 0.000000 
6.012882 17.542222 0.801644 -1.296564 -11.290668 13.075242 -30.637317 -8.952147 -15.601872 -4.292028 11.988739 25.155615 -0.046117 3.989364 1.815880 0.361700 -3.863700 -10.693600 29.750505 21.398319 -15.989971 3.045627 -14.970695 29.992529 1.345598 -7.973655 -3.659314 -0.456600 4.335000 -12.021100 1.302535 -0.451284 -4.517316 0.959591 0.175696 5.510577 6.435136 -11.552938 9.331588 1.047600 -5.583600 8.343000 -79.798462 4.189202 35.331841 12.722941 -16.049652 -2.648014 -1.184688 -2.051244 -40.931955 -7.125000 0.000000 0.000000 75.845064 -0.817705 26.197566 -13.737553 15.547300 -2.549661 1.372260 0.998513 -3.494435 7.125000 0.000000 0.000000 
6.012106 17.542333 0.801311 -1.277949 -11.272238 13.074124 -30.648949 -8.959065 -15.610149 -4.293614 11.991449 25.157026 -0.034000 3.952844 1.817856 0.356700 -3.836700 -10.617700 29.739968 21.421768 -15.978433 3.045404 -14.969135 29.988844 1.359391 -8.016089 -3.679336 -0.457700 4.339800 -12.034800 1.310616 -0.475538 -4.521315 0.982852 0.166474 5.504171 6.388870 -11.517123 9.297986 1.014500 -5.569300 8.324800 -79.801793 4.174663 35.300430 12.662558 -15.970460 -2.624122 -1.303197 -1.912870 -40.798830 -7.125000 0.000000 0.000000 75.804855 -0.801100 26.215446 -13.734340 15.538700 -2.547811 1.372852 0.995297 -3.525582 7.125000 0.000000 0.000000 
6.011884 17.542776 0.802087 -1.279901 -11.272672 13.079785 -30.645897 -8.986487 -15.599924 -4.294512 11.991097 25.153068 -0.045214 3.986819 1.804115 0.357500 -3.841400 -10.630900 29.741596 21.366498 -15.996917 3.044004 -14.970179 29.996690 1.344263 -7.968715 -3.664595 -0.459600 4.348600 -12.059400 1.321698 -0.495219 -4.517616 1.021299 0.159824 5.546729 6.349901 -11.460615 9.252779 0.998300 -5.548400 8.297400 -79.832602 4.143930 35.327653 12.704308 -16.022181 -2.643294 -1.162416 -1.998461 -40.926379 -7.125000 0.000000 0.000000 75.751917 -0.765100 26.176503 -13.738736 15.542533 -2.548466 1.371846 0.994293 -3.494839 7.125000 0.000000 0.000000 
6.011329 17.542222 0.801311 -1.293965 -11.273606 13.084522 -30.628399 -9.078742 -15.569664 -4.296561 11.991697 25.144779 -0.080630 4.094629 1.779673 0.360200 -3.855700 -10.671000 29.759950 21.315070 -16.011819 3.043009 -14.972772 30.007651 1.323308 -7.904348 -3.662531 -0.459000 4.346200 -12.052700 1.319517 -0.485627 -4.500200 1.000216 0.162885 5.659486 6.332175 -11.441986 9.183069 0.996800 -5.544300 8.261300 -79.780592 4.055218 35.340010 12.683438 -15.994125 -2.635964 -1.131040 -1.987492 -40.794538 -7.125000 0.000000 0.000000 75.737786 -0.661555 26.121015 -13.730593 15.539550 -2.545730 1.369890 0.994426 -3.511311 7.125000 0.000000 0.000000 
